# xmcd
#
# Track frame offsets: 
#        150
#        20912
#        45280
#        62692
#        84595
#        98555
#        125092
#        138810
#        152180
#        168300
#        185932
#        204110
#        224162
#        249577
#
# Disc length: 3679 seconds
#
# Revision: 0
# Processed by: cddbd v1.5.2PL0 Copyright (c) Steve Scherf et al.
# Submitted via: ExactAudioCopy v1.0b1
#
DISCID=c70e5d0e
DTITLE=斉藤和義 - NOWHERE LAND
DYEAR=2003
DGENRE=
TTITLE0=透明の翼
TTITLE1=喜びの唄
TTITLE2=無欲の空（Brass Plus Ver.）
TTITLE3=わすれもの
TTITLE4=この古着は誰が着ていたんだろう
TTITLE5=イレズミ
TTITLE6=スケッチブック
TTITLE7=WANT YOU
TTITLE8=野良猫のうた
TTITLE9=CAT STYLE
TTITLE10=ハックルベリー・フィン
TTITLE11=五秒の再会
TTITLE12=ニューヨーク
TTITLE13=やわらかな日
EXTD=
EXTT0=
EXTT1=
EXTT2=
EXTT3=
EXTT4=
EXTT5=
EXTT6=
EXTT7=
EXTT8=
EXTT9=
EXTT10=
EXTT11=
EXTT12=
EXTT13=
PLAYORDER=
